<svg xmlns="http://www.w3.org/2000/svg" viewBox="0 0 255.69 417.95"><defs><style>.cls-1{fill:#fff;}.cls-2{fill:#ffd00a;}.cls-3{fill:#20b9af;}.cls-4{fill:#ee5096;}.cls-5{fill:#12a5df;}.cls-6{fill:#90c640;}.cls-7{fill:#05799f;}.cls-8{fill:#221f1f;}.cls-9{font-size:34.06px;fill:#343741;font-family:OpenSans-Semibold, Open Sans;font-weight:700;letter-spacing:0.14em;}.cls-10{letter-spacing:0.14em;}</style></defs><title>Elastic_CommRadio</title><g id="Layer_2" data-name="Layer 2"><g id="Layer_1-2" data-name="Layer 1"><path class="cls-1" d="M239.1,116.12a43.78,43.78,0,0,0-29-41.29A62.84,62.84,0,0,0,97.49,26.08a33.38,33.38,0,0,0-51.71,38,44.36,44.36,0,0,0-29.19,41.46A43.83,43.83,0,0,0,45.69,147a64,64,0,0,0-1.15,11.95,62.68,62.68,0,0,0,113.63,36.54,33.33,33.33,0,0,0,51.74-37.88,44.38,44.38,0,0,0,29.19-41.46"/><path class="cls-2" d="M104.07,95.46l48.69,22.19,49.12-43a54.91,54.91,0,0,0-99.14-41.84L94.56,75.16Z"/><path class="cls-3" d="M53.67,147a56,56,0,0,0-1.07,11,55,55,0,0,0,100.57,31l8.11-42.25L150.46,126l-48.88-22.28Z"/><path class="cls-4" d="M53.36,62.76l33.37,7.88L94,32.7A26.37,26.37,0,0,0,53.36,62.76"/><path class="cls-5" d="M50.47,70.7a37.16,37.16,0,0,0-25.28,35A36.78,36.78,0,0,0,48.87,140L95.68,97.72,87.09,79.35Z"/><path class="cls-6" d="M161.73,188.93a26.31,26.31,0,0,0,40.59-30L169,151.12Z"/><path class="cls-7" d="M168.51,142.38l36.7,8.59A37.14,37.14,0,0,0,230.49,116,36.73,36.73,0,0,0,206.77,81.7l-48,42.05Z"/><path class="cls-8" d="M36.58,302.74l2.9-.3.2,5.9a144.5,144.5,0,0,1-19.49,1.6q-10.8,0-15.29-6.25T.4,284.25Q.4,258,21.29,258q10.09,0,15.09,5.64t5,17.74l-.4,5.7H8q0,8.29,3,12.29t10.45,4Q28.88,303.34,36.58,302.74Zm-2.7-21.69q0-9.18-3-13t-9.59-3.8q-6.64,0-10,4T7.9,281.05Z"/><path class="cls-8" d="M51.83,309.55V243.77h7.49v65.78Z"/><path class="cls-8" d="M106.52,274.06v25.2c0,2.5,6.22,2.4,6.22,2.4l-.38,6.62c-5.26,0-9.62.44-12.24-2.09a43.65,43.65,0,0,1-18,3.75q-6.9,0-10.49-3.9t-3.6-11.19q0-7.31,3.7-10.75t11.59-4.24L99,278.36v-4.3c0-3.4-.74-5.83-2.2-7.3a8.14,8.14,0,0,0-6-2.2l-19.69,0V258H90.33q8.51,0,12.35,3.9T106.52,274.06ZM75.74,294.45q0,9.19,7.6,9.19a40.5,40.5,0,0,0,13.39-2.3l2.3-.8V284.05l-14.79,1.4c-3,.27-5.17,1.13-6.5,2.6S75.74,291.65,75.74,294.45Z"/><path class="cls-8" d="M135.78,264.66q-10.91,0-10.9,7.6a5.27,5.27,0,0,0,2.5,4.95c1.67,1,5.46,2,11.4,3s10.12,2.49,12.59,4.35,3.7,5.37,3.7,10.5-1.65,8.89-4.95,11.29-8.11,3.6-14.44,3.6c-4.13,0-17.92-1.53-17.92-1.53l.4-6.5c7.92.76,13.65,1.33,17.52,1.33s6.81-.62,8.84-1.85,3-3.3,3-6.19-.87-4.87-2.6-5.9-5.53-2-11.39-2.95-10-2.3-12.49-4.1-3.7-5.13-3.7-10,1.71-8.46,5.15-10.79a22.34,22.34,0,0,1,12.84-3.5c4.06,0,18.16,1,18.16,1v6.54C146.12,265.2,140,264.66,135.78,264.66Z"/><path class="cls-8" d="M191.22,265.46H175.33v23.89q0,8.59,1.24,11.29t6,2.7l8.89-.6.5,6.2a68.71,68.71,0,0,1-10.19,1.1q-7.8,0-10.79-3.8t-3-14.49V265.46h-7.1V259h7.1V243.68h7.4V259h15.89Z"/><path class="cls-8" d="M201.64,252.58v-8.69h7.49v8.69Zm0,57V259h7.49v50.58Z"/><path class="cls-8" d="M241.6,258a86.34,86.34,0,0,1,11.19,1.2l2.4.3-.3,6.09a117.16,117.16,0,0,0-11.79-.9q-8.5,0-11.55,4t-3.05,15q0,10.95,2.85,15.24t11.85,4.3l11.79-.9.3,6.2a103.37,103.37,0,0,1-13.89,1.4q-11.7,0-16.14-6t-4.45-20.24q0-14.24,4.8-20T241.6,258Z"/><text class="cls-9" transform="translate(0 366.87)">COMMUNITY<tspan class="cls-10"><tspan x="62.75" y="41.47">RADIO</tspan></tspan></text></g></g></svg>